<?xml version="1.0" encoding="UTF-8" standalone="no"?>
<svg width="429px" height="149px" viewBox="0 0 429 149" version="1.1" xmlns="http://www.w3.org/2000/svg" xmlns:xlink="http://www.w3.org/1999/xlink">
    <!-- Generator: sketchtool 39.1 (31720) - http://www.bohemiancoding.com/sketch -->
    <title>928DF417-0C0F-4AB3-A4C6-A500EE9D1C17</title>
    <desc>Created with sketchtool.</desc>
    <defs></defs>
    <g id="Page-1" stroke="none" stroke-width="1" fill="none" fill-rule="evenodd">
        <g id="1920x1080-CC-2" transform="translate(-85.000000, -742.000000)" fill="#F56606">
            <path d="M222.831608,867.297867 C224.54662,869.012879 225.404126,871.26071 225.404126,873.508542 C225.404126,876.187208 224.205283,878.345542 222.831608,879.715054 C220.219545,882.329199 216.658397,885.049491 212.006635,886.972635 C208.095825,888.598151 203.808295,889.49312 199.310551,889.49312 L118.18257,889.49312 C109.018494,889.49312 100.724413,885.780036 94.717708,879.777494 C88.7130844,873.768707 85,865.476707 85,856.308469 L85,775.178407 C85,766.014332 88.7130844,757.722332 94.717708,751.715627 C100.724413,745.711003 109.018494,742 118.18257,742 L199.310551,742 C203.808295,742 208.095825,742.89497 212.006635,744.516322 C217.368129,746.739178 220.800235,749.480283 224.111623,753.051838 C225.429102,754.475464 226.68206,756.581765 226.68206,759.264594 C226.68206,761.510344 225.824554,763.758175 224.111623,765.471106 C222.398693,767.184037 220.146699,768.045705 217.900948,768.045705 C215.651036,768.045705 213.38031,767.159061 211.690274,765.471106 C209.350864,763.129615 208.066686,761.926609 205.383858,760.790205 C203.514828,759.99722 201.462641,759.560142 199.310551,759.560142 L118.18257,759.560142 C113.876308,759.560142 109.971741,761.310537 107.141139,764.14322 C104.314699,766.96966 102.562223,770.872145 102.562223,775.178407 L102.562223,856.308469 C102.562223,860.623057 104.314699,864.521379 107.141139,867.3499 C109.971741,870.178421 113.876308,871.930897 118.18257,871.930897 L199.310551,871.930897 C201.462641,871.930897 203.514828,871.4959 205.383858,870.698753 C207.065569,869.989021 208.822207,868.885918 210.414421,867.297867 C212.100295,865.609912 214.375183,864.72743 216.623015,864.72743 C218.868765,864.72743 221.118677,865.580774 222.831608,867.297867 L222.831608,867.297867 Z M199.052466,856.845451 C198.736105,850.439132 194.409029,840.577812 183.532023,839.285309 L144.833941,839.285309 L189.418011,796.599408 C191.301611,794.803224 195.52462,788.715347 192.517105,782.163335 C190.100686,776.893419 186.054589,774.645588 178.984327,774.645588 L123.44416,774.645588 C123.673106,782.01348 127.348727,790.811242 137.112224,792.386805 L168.848273,792.386805 L121.947687,836.463032 C120.045356,838.292517 116.915043,843.905851 119.383495,849.606602 C121.614675,854.747475 125.369386,856.845451 132.352233,856.845451 L199.052466,856.845451 L199.052466,856.845451 Z M326.10489,816.632164 L326.10489,849.338111 C326.10489,861.438936 322.406375,871.960036 314.010309,880.349858 C306.467586,887.894663 296.930953,891 286.463968,891 C265.933775,891 255.356479,875.13822 255.356479,875.13822 C260.878235,869.618545 268.552082,866.267611 276.069829,870.77368 C277.333194,871.529201 281.121206,873.598039 286.547221,873.598039 C305.543477,873.598039 308.636327,856.618587 308.636327,851.565129 C302.055176,855.544623 294.624845,857.523963 286.37239,857.528126 L286.361983,857.528126 C275.626507,857.523963 266.210591,854.129322 258.380645,847.431617 L258.276579,847.346282 C250.590244,839.976309 246.660702,830.882999 246.5941,820.311947 C246.542067,818.143206 246.542067,811.189498 246.5941,809.57439 C246.616994,799.180251 250.548618,790.126486 258.276579,782.723212 C266.081549,775.251254 275.530766,771.459079 286.361983,771.456998 L286.370308,771.456998 C300.764754,771.456998 311.32748,778.581374 316.218595,784.508989 C317.463228,786.015868 318.185447,787.961908 318.185447,790.068209 C318.185447,792.507522 317.203062,794.71789 315.600441,796.318429 C314.001984,797.916887 311.791616,798.905516 309.34814,798.905516 C306.933803,798.905516 304.625613,797.893992 303.154116,796.364218 C297.669824,790.663468 292.458185,788.867284 286.368227,788.865203 C280.278269,788.867284 275.206079,790.896576 270.856109,795.071715 C266.533196,799.14695 264.495579,803.782061 264.43522,809.674294 C264.33948,812.255137 264.33948,817.737348 264.431058,820.212044 C264.478928,826.25205 266.510302,830.955845 270.820727,835.081032 C275.312227,839.183324 280.413555,841.191803 286.370308,841.195966 C292.327061,841.191803 297.426309,839.183324 301.959435,835.045649 C304.323821,832.777005 305.999288,830.325204 307.035788,827.569529 C307.868318,825.352917 309.604143,820.736538 315.479725,818.390884 C320.427035,816.419869 326.10489,816.632164 326.10489,816.632164 L326.10489,816.632164 Z M409.081088,818.390884 C403.207588,820.736538 401.471762,825.352917 400.639232,827.569529 C399.602732,830.325204 397.923103,832.777005 395.556636,835.045649 C391.031834,839.183324 385.930506,841.191803 379.971672,841.195966 C374.012837,841.191803 368.917753,839.183324 364.42209,835.081032 C360.109584,830.955845 358.080292,826.25205 358.032421,820.212044 C357.938762,817.737348 357.938762,812.255137 358.036584,809.674294 C358.096942,803.782061 360.13456,799.14695 364.455391,795.071715 C368.805361,790.896576 373.881714,788.867284 379.971672,788.865203 C386.057467,788.867284 391.273268,790.663468 396.753398,796.364218 C398.222814,797.893992 400.537247,798.905516 402.951585,798.905516 C405.395061,798.905516 407.605428,797.916887 409.199723,796.318429 C410.802344,794.71789 411.788892,792.507522 411.788892,790.068209 C411.788892,787.961908 411.064591,786.015868 409.82204,784.508989 C404.930925,778.581374 394.366118,771.456998 379.975834,771.456998 L379.963346,771.456998 C369.134211,771.459079 359.682912,775.251254 351.882105,782.723212 C344.149981,790.126486 340.218358,799.180251 340.199626,809.57439 C340.141349,811.189498 340.141349,818.143206 340.199626,820.311947 C340.264147,830.882999 344.19577,839.976309 351.882105,847.346282 L351.979927,847.431617 C359.811954,854.129322 369.232033,857.523963 379.963346,857.528126 L379.975834,857.528126 C388.228289,857.523963 395.654458,855.544623 402.239771,851.565129 C402.239771,856.618587 399.146922,873.598039 380.146503,873.598039 C374.726732,873.598039 370.934557,871.529201 369.671193,870.77368 C362.153445,866.267611 354.479599,869.618545 348.959924,875.13822 C348.959924,875.13822 359.533057,891 380.065331,891 C390.532316,891 400.064786,887.894663 407.613754,880.349858 C416.007739,871.960036 419.708335,861.438936 419.708335,849.338111 L419.708335,816.632164 C419.708335,816.632164 414.028398,816.419869 409.081088,818.390884 L409.081088,818.390884 Z M513.347162,809.643074 C513.322186,799.186495 509.392644,790.128567 501.668846,782.723212 C493.859713,775.251254 484.408415,771.459079 473.575116,771.456998 L473.566791,771.456998 C462.737655,771.459079 453.286357,775.251254 445.481387,782.723212 C437.753426,790.126486 433.825965,799.180251 433.796826,809.57439 C433.744793,811.189498 433.744793,818.143206 433.796826,820.311947 C433.863429,830.882999 437.797134,839.976309 445.481387,847.346282 L445.58129,847.431617 C453.415399,854.129322 462.831315,857.523963 473.566791,857.528126 L473.579279,857.528126 C484.302267,857.523963 493.720264,854.129322 501.566861,847.435779 L501.668846,847.346282 C509.351018,839.976309 513.278479,830.876755 513.347162,820.353574 C513.399195,818.143206 513.399195,811.189498 513.347162,809.643074 L513.347162,809.643074 Z M473.570954,841.195966 C467.614201,841.191803 462.517035,839.183324 458.021372,835.081032 C453.713029,830.955845 451.679574,826.25205 451.635866,820.212044 C451.542206,817.737348 451.542206,812.255137 451.640028,809.674294 C451.700387,803.782061 453.735923,799.14695 458.058836,795.071715 C462.406724,790.896576 467.480996,788.867284 473.570954,788.865203 C479.65883,788.867284 484.733101,790.896576 489.103885,795.090447 C493.412228,799.14695 495.447764,803.782061 495.514367,809.730489 C495.595538,812.142745 495.630921,817.59998 495.514367,820.280727 C495.460252,826.25205 493.428879,830.955845 489.16008,835.045649 C484.631117,839.183324 479.529788,841.191803 473.570954,841.195966 L473.570954,841.195966 Z M232.503527,774.645588 C223.293662,774.662239 214.939223,782.383956 214.939223,790.669712 L214.939223,856.845451 C224.147006,856.824638 232.503527,849.105002 232.503527,840.82549 L232.503527,774.645588 L232.503527,774.645588 Z" id="ziggo"></path>
        </g>
    </g>
</svg>